<?xml version="1.0" encoding="UTF-8"?>
<svg id="_图层_1" data-name="图层_1" xmlns="http://www.w3.org/2000/svg" version="1.1" viewBox="0 0 242.62 242.62">
  <!-- Generator: Adobe Illustrator 29.5.1, SVG Export Plug-In . SVG Version: 2.1.0 Build 141)  -->
  <defs>
    <style>
      .st0 {
        fill: #258bcc;
      }

      .st1 {
        stroke-width: 8px;
      }

      .st1, .st2 {
        fill: none;
        stroke: #fff;
        stroke-linecap: round;
        stroke-linejoin: round;
      }

      .st2 {
        stroke-width: 5px;
      }
    </style>
  </defs>
  <rect class="st0" x="1.78" y="1.78" width="239.06" height="239.06" rx="72.48" ry="72.48"/>
  <g>
    <path class="st1" d="M50.47,140.8l37.16-55.16c1.33-1.97,3.36-3.12,5.53-3.12h9.41l20.62-30.35c2.56-3.77,7.4-4.15,10.38-.81l20.09,22.46"/>
    <path class="st1" d="M143.85,91.79l16.44-20.74c2.6-3.28,7.01-3.52,9.87-.54l59.09,72.65c6.17,7.59.77,18.95-9.01,18.95H15.58"/>
    <path class="st1" d="M72.36,107.16l-15.82-10.89c-2.82-1.94-6.42-1.36-8.67,1.38l-33.91,43.05"/>
  </g>
  <path class="st2" d="M126.76,54.03s-.48,9.03-1.4,12.57c-.92,3.54-6.89,12.51-6.89,12.51h17.22l-11.09,12.04-6.09,12.57-7.66,1.77-9.61,19.66-31.36,18.06"/>
  <polyline class="st2" points="171.47 75.04 143.12 126.53 135.43 122.63 119.26 144.07"/>
  <polyline class="st2" points="56.84 100.8 51.51 107.42 46.97 113.98 55.27 113.63 46.37 124.99 26.39 143.48"/>
</svg>