<?xml version="1.0" encoding="UTF-8"?>
<svg id="_图层_1" data-name=" 图层 1" xmlns="http://www.w3.org/2000/svg" viewBox="0 0 621.8 222.61">
  <defs>
    <style>
      path:not([fill]) {
        fill: #104E8B;
      }

      /* 将所有没有fill属性的路径设为黑色，可以修改为任何颜色代码 */
    </style>
  </defs>
  <path
    d="m32.54,156.31c4.92-4.32,9.24-8.18,13.63-11.95,25.79-22.14,51.59-44.25,77.39-66.38,6.93-5.95,10.42-6.38,18.5-2.01,11.86,6.42,23.63,13.01,35.55,19.31,9.53,5.04,7.39,5.09,14.57-2.03,29.36-29.08,58.61-58.27,87.91-87.4,7.41-7.36,11.11-7.64,19.47-1.58,14.03,10.16,28.43,19.85,41.95,30.64,8.93,7.13,16.72,15.72,24.78,23.89,16.26,16.49,32.4,33.1,48.46,49.77,2.41,2.51,4.07,2.38,6.68.34,9.31-7.29,18.78-14.38,28.23-21.5,6.85-5.16,11.16-5.26,17.95.09,31.52,24.85,62.96,49.81,94.46,74.7,18.55,14.66,37.15,29.28,55.72,43.92,1.42,1.12,2.78,2.3,4.01,4.14-8.49-.71-17.04,3.34-25.25-3.25-40.78-32.73-81.82-65.14-122.79-97.63-4.01-3.18-8.15-6.2-12.03-9.14-7.13,12.97-13.99,25.45-21.23,38.61h24.14c-.83,4.93-1.31,9-2.31,12.93-.29,1.15-1.97,2.08-3.18,2.85-2.1,1.34-4.39,2.38-6.49,3.7-7.66,4.81-11.81,11.52-12.95,20.73-1.18,9.54-3.79,18.89-5.47,28.38-.68,3.83-3.17,3.63-5.86,3.63-24.49,0-48.99.04-73.48.04-15.99,0-31.99.09-47.98-.19-2.52-.04-5.6-1.23-7.42-2.95-32.59-30.73-65.06-61.58-97.46-92.51-3.23-3.09-5.9-4.45-10.43-2.07-2.31,1.22-6.37,1.03-8.79-.19-13.65-6.92-27.03-14.35-40.52-21.58-1.12-.6-2.36-1-3.24-1.36-6.93,13.6-13.67,26.84-20.7,40.64h21.5c-4.24,17.54-8.18,33.88-12.52,51.81,2.66-1.96,4.24-2.91,5.57-4.14,11.61-10.76,23.2-21.53,34.72-32.38,2.36-2.22,4.31-2.84,7.41-.96,31.31,19.08,61.79,39.3,89.5,63.44.49.42.94.88,1.93,1.82-1.75.2-2.96.45-4.16.45-42.32.04-84.65.05-126.97.08-18.99,0-37.99.03-56.98.13-7.1.04-6.87.1-8.37-7.04-1.36-6.48-2.71-13.06-5.07-19.21-4.95-12.92-13.87-22.16-27.31-26.57-1.39-.47-2.75-1.09-5.07-2.02h0Zm273.72-83.64c2.97,27.5,5.91,54.68,8.85,81.86.58.07,1.16.13,1.74.2,9.72-19.51,19.44-39.02,29.3-58.83,1.68,1.46,2.86,2.38,3.92,3.42,12.06,11.73,24.05,23.54,36.21,35.16,1.45,1.39,4.64,3.13,5.61,2.51,6.23-4,12.07-8.61,18.25-13.18-1.39-1.65-2.19-2.71-3.1-3.65-14.94-15.43-29.74-31.01-44.91-46.21-11.04-11.06-22.23-22.02-34.02-32.24-8.27-7.17-17.67-13.04-26.59-19.44-2.25-1.61-4.64-3.04-7.97-5.22-2.49,21.7-6.05,42.22-15.37,61.32.45.48.9.97,1.35,1.45,8.54-2.28,17.08-4.56,26.73-7.15h0Z" />
  <path
    d="m41.8,201.97c-.04,11.81-9.42,20.79-21.55,20.64C9.23,222.47.05,213.18,0,202.13c-.05-11.65,9.36-21.06,20.86-20.86,12.14.21,20.98,8.95,20.94,20.7Z" />
</svg>