<?xml version="1.0" encoding="utf-8"?>
<!-- Generator: Adobe Illustrator 28.0.0, SVG Export Plug-In . SVG Version: 6.00 Build 0)  -->
<svg version="1.1" baseProfile="tiny" id="图层_1"
	 xmlns="http://www.w3.org/2000/svg" xmlns:xlink="http://www.w3.org/1999/xlink" x="0px" y="0px" viewBox="542 302 836 476"
	 overflow="visible" xml:space="preserve">

  <style>
    path:not([fill]) { fill: #104E8B; } /* 将所有没有fill属性的路径设为黑色，可以修改为任何颜色代码 */
  </style>


	<path d="M711.68,488.48c4.92-4.32,9.24-8.18,13.63-11.95c25.79-22.14,51.59-44.25,77.39-66.38c6.93-5.95,10.42-6.38,18.5-2.01
		c11.86,6.42,23.63,13.01,35.55,19.31c9.53,5.04,7.39,5.09,14.57-2.03c29.36-29.08,58.61-58.27,87.91-87.4
		c7.41-7.36,11.11-7.64,19.47-1.58c14.03,10.16,28.43,19.85,41.95,30.64c8.93,7.13,16.72,15.72,24.78,23.89
		c16.26,16.49,32.4,33.1,48.46,49.77c2.41,2.51,4.07,2.38,6.68,0.34c9.31-7.29,18.78-14.38,28.23-21.5
		c6.85-5.16,11.16-5.26,17.95,0.09c31.52,24.85,62.96,49.81,94.46,74.7c18.55,14.66,37.15,29.28,55.72,43.92
		c1.42,1.12,2.78,2.3,4.01,4.14c-8.49-0.71-17.04,3.34-25.25-3.25c-40.78-32.73-81.82-65.14-122.79-97.63
		c-4.01-3.18-8.15-6.2-12.03-9.14c-7.13,12.97-13.99,25.45-21.23,38.61c7.87,0,15.73,0,24.14,0c-0.83,4.93-1.31,9-2.31,12.93
		c-0.29,1.15-1.97,2.08-3.18,2.85c-2.1,1.34-4.39,2.38-6.49,3.7c-7.66,4.81-11.81,11.52-12.95,20.73
		c-1.18,9.54-3.79,18.89-5.47,28.38c-0.68,3.83-3.17,3.63-5.86,3.63c-24.49,0.01-48.99,0.04-73.48,0.04
		c-15.99,0-31.99,0.09-47.98-0.19c-2.52-0.04-5.6-1.23-7.42-2.95c-32.59-30.73-65.06-61.58-97.46-92.51
		c-3.23-3.09-5.9-4.45-10.43-2.07c-2.31,1.22-6.37,1.03-8.79-0.19c-13.65-6.92-27.03-14.35-40.52-21.58c-1.12-0.6-2.36-1-3.24-1.36
		c-6.93,13.6-13.67,26.84-20.7,40.64c6.35,0,13.15,0,21.5,0c-4.24,17.54-8.18,33.88-12.52,51.81c2.66-1.96,4.24-2.91,5.57-4.14
		c11.61-10.76,23.2-21.53,34.72-32.38c2.36-2.22,4.31-2.84,7.41-0.96c31.31,19.08,61.79,39.3,89.5,63.44
		c0.49,0.42,0.94,0.88,1.93,1.82c-1.75,0.2-2.96,0.45-4.16,0.45c-42.32,0.04-84.65,0.05-126.97,0.08
		c-18.99,0.01-37.99,0.03-56.98,0.13c-7.1,0.04-6.87,0.1-8.37-7.04c-1.36-6.48-2.71-13.06-5.07-19.21
		c-4.95-12.92-13.87-22.16-27.31-26.57C715.36,490.03,714,489.41,711.68,488.48z M985.4,404.84c2.97,27.5,5.91,54.68,8.85,81.86
		c0.58,0.07,1.16,0.13,1.74,0.2c9.72-19.51,19.44-39.02,29.3-58.83c1.68,1.46,2.86,2.38,3.92,3.42
		c12.06,11.73,24.05,23.54,36.21,35.16c1.45,1.39,4.64,3.13,5.61,2.51c6.23-4,12.07-8.61,18.25-13.18c-1.39-1.65-2.19-2.71-3.1-3.65
		c-14.94-15.43-29.74-31.01-44.91-46.21c-11.04-11.06-22.23-22.02-34.02-32.24c-8.27-7.17-17.67-13.04-26.59-19.44
		c-2.25-1.61-4.64-3.04-7.97-5.22c-2.49,21.7-6.05,42.22-15.37,61.32c0.45,0.48,0.9,0.97,1.35,1.45
		C967.21,409.71,975.75,407.43,985.4,404.84z"/>
	<path d="M738.34,750.78c0-59.84,0-118.76,0-178.33c2.62-0.12,5.19-0.31,7.77-0.33c7.33-0.04,14.66,0.19,21.98-0.08
		c3.84-0.14,5.07,1.27,4.77,4.89c-0.21,2.59-0.04,5.2-0.04,8.63c1.54-0.97,2.49-1.29,3.04-1.94c18.29-21.54,62.49-18.47,80.89,7.75
		c19.66,28.01,15.58,72.09-9.01,93.78c-18.26,16.11-52.91,18.26-70.4-0.04c-0.75-0.79-1.85-1.24-3.56-2.36
		c-0.28,2.54-0.66,4.4-0.66,6.26c-0.08,18.82-0.19,37.64-0.05,56.46c0.03,4-0.91,5.56-5.24,5.41
		C758.21,750.55,748.58,750.78,738.34,750.78z M802.86,598.83c-14.36-0.01-25.26,7.6-28.63,21.57c-1.67,6.94-1.77,14.51-1.19,21.69
		c1.2,14.72,11.02,24.26,26.01,26.57c13.48,2.07,26.1-4.64,31.27-17.83c2.31-5.88,3.57-12.6,3.48-18.91
		C833.48,611.61,821.13,598.84,802.86,598.83z"/>
	<path d="M1265.48,572.24c-8.63,9.76-16.21,18.36-23.83,26.93c-6.2,6.97-12.31,14.02-18.72,20.79c-2.83,2.99-2.89,5.34-0.61,8.69
		c13.39,19.69,26.61,39.5,39.86,59.28c1.29,1.92,2.44,3.94,4.03,6.52c-1.66,0.34-2.84,0.79-4.03,0.8c-10.5,0.07-21,0.25-31.49-0.09
		c-2.18-0.07-5.09-1.63-6.32-3.42c-8.55-12.51-16.73-25.27-25.06-37.93c-1.08-1.64-2.3-3.19-4.07-5.63
		c-5.78,7.89-15.86,11.87-14.51,23.81c0.71,6.25,0.06,12.65,0.17,18.98c0.04,2.54-0.5,4.28-3.44,4.28c-10.28,0-20.57,0-31.22,0
		c0-61.48,0-122.41,0-183.74c11.28,0,22.51,0,34.32,0c0,35.89,0,71.8,0,109.42c2.76-2.39,4.56-3.61,5.95-5.19
		c11.65-13.27,23.12-26.71,34.93-39.83c1.73-1.93,4.95-3.43,7.53-3.52C1240.58,572.03,1252.2,572.24,1265.48,572.24z"/>
	<path d="M980.86,657.11c5.63,6,11.07,11.8,17.06,18.19c-3.21,5.26-8.85,9.75-15.03,13.04c-25.55,13.6-51.37,13.84-76.48-0.94
		c-13.03-7.67-20.9-19.81-24.62-34.46c-4.68-18.43-3.47-36.32,5.79-53.21c8.61-15.7,22.04-25.01,39.44-28.72
		c14.84-3.16,29.55-2.81,43.57,3.39c22.33,9.87,31.19,28.72,33.22,51.72c0.38,4.3-0.11,8.66,0.08,12.99c0.2,4.4-1.81,5.75-6,5.69
		c-13.66-0.21-27.32-0.12-40.98-0.21c-12.49-0.08-24.98-0.15-37.47-0.45c-4.19-0.1-4.75,1.44-3.73,5.12
		c3.32,11.88,14.39,20.2,28.11,20.83C958.41,670.76,965.16,668.42,980.86,657.11z M969.78,622.57c0.6-15.49-11.13-26.86-26.5-26.74
		c-14.01,0.11-27.59,9.58-27.87,26.74C933.46,622.57,951.5,622.57,969.78,622.57z"/>
	<path d="M1093.48,681.92c-3.44,3.01-5.73,5.13-8.14,7.09c-15.47,12.57-45.12,11.98-60-1.27c-11.63-10.36-14.44-23.67-11.32-38.21
		c3.36-15.65,14.78-23.56,29.39-27.31c13.78-3.54,27.75-2.55,41.67-0.62c2.11,0.29,4.23,0.43,6.3,0.64
		c2.92-13.05-5.89-23.33-20.35-24.34c-13.52-0.95-26.1,1.96-37.76,8.89c-0.85,0.5-1.74,0.93-3.46,1.85
		c-3.62-8.29-7.15-16.39-10.86-24.87c9.33-5.84,19.14-9.73,29.62-11.87c14.18-2.9,28.43-3.39,42.57,0.16
		c21.08,5.3,33.92,20.28,34.66,42.13c0.87,25.62,0.66,51.28,1,76.93c0.04,3.03-1.09,4.11-4.09,4.09
		c-8.32-0.06-16.65-0.04-24.97,0.21c-3.51,0.11-4.29-1.7-4.28-4.57C1093.49,688.28,1093.48,685.72,1093.48,681.92z M1071.94,640.31
		c-3.82,0.67-9.33,1.13-14.51,2.68c-6.62,1.97-10.35,7.75-10.34,14.34c0.01,6.76,3.7,11.72,10.56,14.17
		c18.54,6.62,34.81-5.04,34.93-24.82c0.02-3.24-0.89-4.56-4.04-4.79C1083.56,641.53,1078.61,640.96,1071.94,640.31z"/>
	<path d="M594.79,510.07c0,12.53,0.01,24.17,0,35.81c-0.02,36.98,0.03,73.96-0.16,110.94c-0.02,4.67,1.13,6.25,6.07,6.19
		c22.14-0.27,44.3-0.12,66.92-0.12c0,10.84,0,21.36,0,32.25c-36.34,0-72.56,0-109.18,0c-0.11-2.14-0.29-3.91-0.29-5.69
		c-0.01-58.14-0.01-116.28,0-174.41c0-2.24-0.68-4.98,3.05-4.97C572.18,510.07,583.14,510.07,594.79,510.07z"/>
	<path d="M1355.26,606.12c-7.72-3.17-14.56-6.88-21.87-8.7c-5.76-1.43-12.13-1-18.16-0.49c-4.51,0.38-7.46,3.68-7.83,8.41
		c-0.39,4.89,2.54,7.97,6.82,9.27c7.94,2.41,16.08,4.14,24.03,6.52c5.23,1.57,10.5,3.32,15.34,5.79
		c15.15,7.74,21.51,22.22,17.73,38.88c-4.1,18.04-16.59,27.46-33.58,30.68c-22.72,4.31-44.37,0.52-63.95-12.48
		c-1.91-1.27-3.65-2.8-5.68-4.37c5.13-7.61,10.04-14.9,14.91-22.11c6.51,3.23,12.44,7.08,18.94,9.16c7.18,2.3,14.85,3.18,22.36,4.28
		c2.17,0.32,4.66-0.39,6.8-1.18c4.12-1.51,7.19-4,7.28-9.03c0.09-4.86-2.7-7.55-6.73-8.8c-8.4-2.6-17.02-4.51-25.39-7.18
		c-5.67-1.81-11.36-3.92-16.56-6.78c-22.69-12.48-21.96-46.81,1.1-60.91c9.11-5.58,19.24-7.49,29.6-7.74
		c15.02-0.36,29.43,2.61,42.63,10.25c6.51,3.77,6.6,3.76,2.76,9.95C1362.32,595.19,1358.7,600.74,1355.26,606.12z"/>
	<path d="M683.16,695.45c0-2.62,0-4.4,0-6.18c0.01-37.16,0.08-74.33-0.06-111.49c-0.02-4.2,0.79-5.91,5.43-5.73
		c9.48,0.37,18.98,0.11,29.09,0.11c0.11,1.76,0.29,3.34,0.29,4.92c0.01,37.66-0.06,75.33,0.08,112.99c0.02,4.18-1.26,5.54-5.36,5.45
		C703.01,695.31,693.39,695.45,683.16,695.45z"/>
	<path d="M720.94,534.14c-0.04,11.81-9.42,20.79-21.55,20.64c-11.02-0.14-20.2-9.43-20.25-20.48c-0.05-11.65,9.36-21.06,20.86-20.86
		C712.14,513.65,720.98,522.39,720.94,534.14z"/>


</svg>
